<svg xmlns="http://www.w3.org/2000/svg" width="514" height="514" viewBox="0 0 514 514" fill="none"><g clip-path="url(#clip0_126_50)"><mask id="mask0_126_50" style="mask-type:alpha" maskUnits="userSpaceOnUse" x="185" y="151" width="152" height="231"><path d="M187.381 321.606C194.339 324.245 233.267 361.694 251.861 380.088C247.563 353.496 238.305 297.553 235.666 286.516L203.276 261.324L197.877 239.43C203.276 242.829 220.611 251.967 246.763 261.324L253.361 288.916L250.062 304.211L260.859 313.808L271.956 303.984L268.656 288.704L275.255 261.139C301.407 251.791 318.743 242.662 324.141 239.266L318.743 261.139L286.352 286.307C283.712 297.333 274.455 353.222 270.156 379.788C288.751 361.412 327.68 323.999 334.638 321.362C335.438 297.692 336.558 244.48 334.638 220.99C333.839 222.588 330.979 226.622 325.941 229.978C319.642 234.173 331.639 226.083 333.139 216.795C334.638 207.507 329.54 170.354 292.65 157.47C292.65 157.47 278.173 151.839 261.009 151.839C243.846 151.839 229.368 157.555 229.368 157.555C192.479 170.451 187.381 207.64 188.88 216.937C190.38 226.234 202.376 234.332 196.078 230.133C191.039 226.774 188.18 222.735 187.381 221.136C185.461 244.649 186.581 297.913 187.381 321.606Z" fill="#C4C4C4" stroke="black"></path></mask><g mask="url(#mask0_126_50)"><path d="M111.632 77.1502L260.987 77.1502L260.987 387.257L111.632 387.257L111.632 77.1502Z" fill="#676767"></path><path d="M111.632 77.1502L260.987 77.1502L260.987 387.257L111.632 387.257L111.632 77.1502Z" fill="url(#paint0_linear_126_50)"></path><path d="M261 70L336 70L355 390.5L261 390.5L261 227L261 70Z" fill="#ADADAD"></path><path d="M261 70L336 70L355 390.5L261 390.5L261 227L261 70Z" fill="url(#paint1_linear_126_50)"></path><path d="M325.649 200.689C322.505 191.562 310.336 170.05 286.811 157.021C297.731 160.445 320.787 173.972 325.649 200.689Z" fill="black"></path><path d="M196.221 200.689C199.365 191.562 211.535 170.05 235.06 157.021C224.14 160.445 201.084 173.972 196.221 200.689Z" fill="black"></path></g><path d="M238.277 69.015C238.099 68.0476 238.306 67.0457 239.089 66.4494C241.191 64.8475 246.928 62.0002 261.157 62C275.529 61.9998 281.072 64.9045 283.031 66.4971C283.741 67.0737 283.913 68.0038 283.755 68.9041L269.456 150C269.456 150 266.686 149.485 261.157 149.485C255.628 149.485 253.221 150 253.221 150L238.277 69.015Z" fill="#B90E31"></path><path d="M285.271 124.383C286.363 107.307 285.401 93.805 284.983 89.168C284.952 88.8321 284.496 88.8118 284.421 89.1407L270.447 150.422C270.447 150.422 273.834 150.793 276.879 151.618C279.923 152.443 282.348 153.247 282.348 153.247C282.348 153.247 283.914 145.623 285.271 124.383Z" fill="#CCB800"></path><path d="M237.413 124.383C236.322 107.307 237.283 93.805 237.702 89.168C237.732 88.8321 238.188 88.8118 238.263 89.1407L252.238 150.422C252.238 150.422 248.85 150.793 245.806 151.618C242.761 152.443 240.337 153.247 240.337 153.247C240.337 153.247 238.771 145.623 237.413 124.383Z" fill="#0048A4"></path><path d="M186.188 420.391C186.188 425.766 188.156 429.203 192.094 430.703C193.719 431.297 195.672 431.641 197.953 431.734L193.734 424.609H203.25L206.812 430.234C210.062 428.453 211.688 425.172 211.688 420.391C211.688 414.297 209.062 410.656 203.812 409.469C202.406 409.156 200.828 409 199.078 409C193.047 409 189.156 410.719 187.406 414.156C186.594 415.812 186.188 417.891 186.188 420.391ZM221.062 420.391C221.062 427.516 218.391 432.766 213.047 436.141C212.484 436.516 211.906 436.844 211.312 437.125L215.859 444.297H205.406L202.594 439.562C201.125 439.719 199.797 439.797 198.609 439.797C191.828 439.797 186.453 437.984 182.484 434.359C178.703 430.891 176.812 426.234 176.812 420.391C176.812 413.484 179.375 408.281 184.5 404.781C188.312 402.219 193.016 400.938 198.609 400.938C205.984 400.938 211.688 402.859 215.719 406.703C219.281 410.109 221.062 414.672 221.062 420.391ZM249.516 401.734H261.75L241.594 419.922L262.688 439H249.516L234.328 424.797V439H225.469V403.188L234.328 400.797V416.031L249.516 401.734ZM266.391 415.141L275.25 412.75V419.312C275.25 419.312 280.547 419.312 291.141 419.312C292.891 419.312 294.109 418.438 294.797 416.688C295.078 415.969 295.219 415.219 295.219 414.438C295.219 412.531 294.578 411.141 293.297 410.266C292.641 409.859 291.922 409.656 291.141 409.656H266.391L268.781 401.734H291.234C295.828 401.734 299.391 403.406 301.922 406.75C303.703 409.125 304.594 411.828 304.594 414.859C304.594 418.484 303.375 421.469 300.938 423.812C299.656 425.031 298.156 425.922 296.438 426.484L305.672 439H295.219L287.109 427.234H275.25V439H266.391V415.141ZM306.609 409.656V401.734H345.562L343.172 409.656H329.25V439H320.344V409.656H306.609Z" fill="#C2C2C2"></path></g><defs><linearGradient id="paint0_linear_126_50" x1="184.59" y1="80.6942" x2="184.59" y2="390.801" gradientUnits="userSpaceOnUse"><stop stop-color="white"></stop><stop offset="1" stop-color="white" stop-opacity="0"></stop></linearGradient><linearGradient id="paint1_linear_126_50" x1="298.5" y1="70" x2="298.5" y2="384" gradientUnits="userSpaceOnUse"><stop stop-color="#373737"></stop><stop offset="1" stop-color="white" stop-opacity="0"></stop></linearGradient><clipPath id="clip0_126_50"><rect width="514" height="514" fill="white"></rect></clipPath></defs></svg>